<svg width="118" height="100" viewBox="0 0 118 100" fill="none" xmlns="http://www.w3.org/2000/svg">
<path d="M21.06 61.3C18.98 61.3 17.15 60.86 15.57 59.98C14.01 59.08 12.8 57.82 11.94 56.2C11.08 54.56 10.65 52.67 10.65 50.53C10.65 48.37 11.08 46.47 11.94 44.83C12.8 43.19 14.01 41.93 15.57 41.05C17.15 40.15 18.97 39.7 21.03 39.7C22.75 39.7 24.33 39.99 25.77 40.57C27.23 41.15 28.37 41.96 29.19 43C29.35 43.18 29.43 43.4 29.43 43.66C29.43 43.98 29.29 44.24 29.01 44.44C28.83 44.56 28.63 44.62 28.41 44.62C28.03 44.62 27.71 44.47 27.45 44.17C26.81 43.35 25.94 42.72 24.84 42.28C23.74 41.84 22.47 41.62 21.03 41.62C19.37 41.62 17.93 41.98 16.71 42.7C15.49 43.42 14.55 44.45 13.89 45.79C13.25 47.13 12.93 48.71 12.93 50.53C12.93 52.33 13.25 53.9 13.89 55.24C14.55 56.56 15.49 57.58 16.71 58.3C17.95 59.02 19.4 59.38 21.06 59.38C22.6 59.38 23.94 59.16 25.08 58.72C26.24 58.26 27.15 57.63 27.81 56.83C28.11 56.51 28.43 56.35 28.77 56.35C29.01 56.35 29.21 56.42 29.37 56.56C29.65 56.8 29.79 57.06 29.79 57.34C29.79 57.58 29.7 57.81 29.52 58.03C28.7 59.03 27.53 59.83 26.01 60.43C24.51 61.01 22.86 61.3 21.06 61.3ZM34.7721 61.3C34.4321 61.3 34.1621 61.2 33.9621 61C33.7621 60.78 33.6621 60.48 33.6621 60.1V48.37C33.6621 45.65 34.4221 43.53 35.9421 42.01C37.4821 40.47 39.6121 39.7 42.3321 39.7C45.0321 39.7 47.1521 40.47 48.6921 42.01C50.2321 43.55 51.0021 45.67 51.0021 48.37V60.1C51.0021 60.48 50.9021 60.78 50.7021 61C50.5021 61.2 50.2221 61.3 49.8621 61.3C49.5221 61.3 49.2421 61.2 49.0221 61C48.8221 60.78 48.7221 60.48 48.7221 60.1V53.35H35.9121V60.1C35.9121 60.48 35.8121 60.78 35.6121 61C35.4121 61.2 35.1321 61.3 34.7721 61.3ZM48.7221 51.49V48.28C48.7221 46.14 48.1721 44.5 47.0721 43.36C45.9721 42.2 44.3921 41.62 42.3321 41.62C40.2521 41.62 38.6621 42.19 37.5621 43.33C36.4621 44.47 35.9121 46.12 35.9121 48.28V51.49H48.7221ZM59.5683 61C58.3483 61 57.3983 60.68 56.7183 60.04C56.0383 59.38 55.6983 58.48 55.6983 57.34V40.9C55.6983 40.52 55.7983 40.23 55.9983 40.03C56.1983 39.81 56.4683 39.7 56.8083 39.7C57.1683 39.7 57.4483 39.81 57.6483 40.03C57.8483 40.23 57.9483 40.52 57.9483 40.9V57.4C57.9483 57.92 58.0883 58.34 58.3683 58.66C58.6683 58.98 59.0583 59.14 59.5383 59.14H69.5283C70.3083 59.14 70.6983 59.45 70.6983 60.07C70.6983 60.37 70.5983 60.6 70.3983 60.76C70.1983 60.92 69.9083 61 69.5283 61H59.5683ZM82.144 61.3C80.064 61.3 78.234 60.86 76.654 59.98C75.094 59.08 73.884 57.82 73.024 56.2C72.164 54.56 71.734 52.67 71.734 50.53C71.734 48.37 72.164 46.47 73.024 44.83C73.884 43.19 75.094 41.93 76.654 41.05C78.234 40.15 80.054 39.7 82.114 39.7C83.834 39.7 85.414 39.99 86.854 40.57C88.314 41.15 89.454 41.96 90.274 43C90.434 43.18 90.514 43.4 90.514 43.66C90.514 43.98 90.374 44.24 90.094 44.44C89.914 44.56 89.714 44.62 89.494 44.62C89.114 44.62 88.794 44.47 88.534 44.17C87.894 43.35 87.024 42.72 85.924 42.28C84.824 41.84 83.554 41.62 82.114 41.62C80.454 41.62 79.014 41.98 77.794 42.7C76.574 43.42 75.634 44.45 74.974 45.79C74.334 47.13 74.014 48.71 74.014 50.53C74.014 52.33 74.334 53.9 74.974 55.24C75.634 56.56 76.574 57.58 77.794 58.3C79.034 59.02 80.484 59.38 82.144 59.38C83.684 59.38 85.024 59.16 86.164 58.72C87.324 58.26 88.234 57.63 88.894 56.83C89.194 56.51 89.514 56.35 89.854 56.35C90.094 56.35 90.294 56.42 90.454 56.56C90.734 56.8 90.874 57.06 90.874 57.34C90.874 57.58 90.784 57.81 90.604 58.03C89.784 59.03 88.614 59.83 87.094 60.43C85.594 61.01 83.944 61.3 82.144 61.3Z" fill="#373737"/>
<path d="M116.12 58.03C116.34 58.21 116.45 58.42 116.45 58.66C116.45 58.86 116.36 59.1 116.18 59.38C115.76 59.96 115.18 60.43 114.44 60.79C113.7 61.13 112.94 61.3 112.16 61.3C110.84 61.3 109.8 60.91 109.04 60.13C108.28 59.35 107.9 58.28 107.9 56.92V48.13H106.28C105.48 48.13 105.08 47.82 105.08 47.2C105.08 46.92 105.18 46.7 105.38 46.54C105.6 46.38 105.9 46.3 106.28 46.3H107.9V41.17C107.9 40.79 107.99 40.5 108.17 40.3C108.37 40.08 108.65 39.97 109.01 39.97C109.35 39.97 109.61 40.08 109.79 40.3C109.99 40.5 110.09 40.79 110.09 41.17V46.3H114.17C114.53 46.3 114.81 46.38 115.01 46.54C115.23 46.68 115.34 46.9 115.34 47.2C115.34 47.82 114.95 48.13 114.17 48.13H110.09V57.1C110.09 58.64 110.81 59.41 112.25 59.41C112.71 59.41 113.13 59.32 113.51 59.14C113.89 58.96 114.27 58.67 114.65 58.27C114.95 57.95 115.24 57.79 115.52 57.79C115.7 57.79 115.9 57.87 116.12 58.03Z" fill="#373737"/>
<line x1="1.5" x2="1.5" y2="100" stroke="#373737" stroke-width="3"/>
<line x1="1" y1="98.5" x2="101" y2="98.5" stroke="#373737" stroke-width="3"/>
<line x1="1" y1="1.5" x2="101" y2="1.5" stroke="#373737" stroke-width="3"/>
<line x1="99.5" x2="99.5" y2="35" stroke="#373737" stroke-width="3"/>
<line x1="99.5" y1="65" x2="99.5" y2="100" stroke="#373737" stroke-width="3"/>
<line x1="99.5" y1="39" x2="99.5" y2="42" stroke="#54EA54" stroke-width="3"/>
<line x1="99.5" y1="46" x2="99.5" y2="61" stroke="#54EA54" stroke-width="3"/>
<path d="M21.06 61.3C18.98 61.3 17.15 60.86 15.57 59.98C14.01 59.08 12.8 57.82 11.94 56.2C11.08 54.56 10.65 52.67 10.65 50.53C10.65 48.37 11.08 46.47 11.94 44.83C12.8 43.19 14.01 41.93 15.57 41.05C17.15 40.15 18.97 39.7 21.03 39.7C22.75 39.7 24.33 39.99 25.77 40.57C27.23 41.15 28.37 41.96 29.19 43C29.35 43.18 29.43 43.4 29.43 43.66C29.43 43.98 29.29 44.24 29.01 44.44C28.83 44.56 28.63 44.62 28.41 44.62C28.03 44.62 27.71 44.47 27.45 44.17C26.81 43.35 25.94 42.72 24.84 42.28C23.74 41.84 22.47 41.62 21.03 41.62C19.37 41.62 17.93 41.98 16.71 42.7C15.49 43.42 14.55 44.45 13.89 45.79C13.25 47.13 12.93 48.71 12.93 50.53C12.93 52.33 13.25 53.9 13.89 55.24C14.55 56.56 15.49 57.58 16.71 58.3C17.95 59.02 19.4 59.38 21.06 59.38C22.6 59.38 23.94 59.16 25.08 58.72C26.24 58.26 27.15 57.63 27.81 56.83C28.11 56.51 28.43 56.35 28.77 56.35C29.01 56.35 29.21 56.42 29.37 56.56C29.65 56.8 29.79 57.06 29.79 57.34C29.79 57.58 29.7 57.81 29.52 58.03C28.7 59.03 27.53 59.83 26.01 60.43C24.51 61.01 22.86 61.3 21.06 61.3ZM34.7721 61.3C34.4321 61.3 34.1621 61.2 33.9621 61C33.7621 60.78 33.6621 60.48 33.6621 60.1V48.37C33.6621 45.65 34.4221 43.53 35.9421 42.01C37.4821 40.47 39.6121 39.7 42.3321 39.7C45.0321 39.7 47.1521 40.47 48.6921 42.01C50.2321 43.55 51.0021 45.67 51.0021 48.37V60.1C51.0021 60.48 50.9021 60.78 50.7021 61C50.5021 61.2 50.2221 61.3 49.8621 61.3C49.5221 61.3 49.2421 61.2 49.0221 61C48.8221 60.78 48.7221 60.48 48.7221 60.1V53.35H35.9121V60.1C35.9121 60.48 35.8121 60.78 35.6121 61C35.4121 61.2 35.1321 61.3 34.7721 61.3ZM48.7221 51.49V48.28C48.7221 46.14 48.1721 44.5 47.0721 43.36C45.9721 42.2 44.3921 41.62 42.3321 41.62C40.2521 41.62 38.6621 42.19 37.5621 43.33C36.4621 44.47 35.9121 46.12 35.9121 48.28V51.49H48.7221ZM59.5683 61C58.3483 61 57.3983 60.68 56.7183 60.04C56.0383 59.38 55.6983 58.48 55.6983 57.34V40.9C55.6983 40.52 55.7983 40.23 55.9983 40.03C56.1983 39.81 56.4683 39.7 56.8083 39.7C57.1683 39.7 57.4483 39.81 57.6483 40.03C57.8483 40.23 57.9483 40.52 57.9483 40.9V57.4C57.9483 57.92 58.0883 58.34 58.3683 58.66C58.6683 58.98 59.0583 59.14 59.5383 59.14H69.5283C70.3083 59.14 70.6983 59.45 70.6983 60.07C70.6983 60.37 70.5983 60.6 70.3983 60.76C70.1983 60.92 69.9083 61 69.5283 61H59.5683ZM82.144 61.3C80.064 61.3 78.234 60.86 76.654 59.98C75.094 59.08 73.884 57.82 73.024 56.2C72.164 54.56 71.734 52.67 71.734 50.53C71.734 48.37 72.164 46.47 73.024 44.83C73.884 43.19 75.094 41.93 76.654 41.05C78.234 40.15 80.054 39.7 82.114 39.7C83.834 39.7 85.414 39.99 86.854 40.57C88.314 41.15 89.454 41.96 90.274 43C90.434 43.18 90.514 43.4 90.514 43.66C90.514 43.98 90.374 44.24 90.094 44.44C89.914 44.56 89.714 44.62 89.494 44.62C89.114 44.62 88.794 44.47 88.534 44.17C87.894 43.35 87.024 42.72 85.924 42.28C84.824 41.84 83.554 41.62 82.114 41.62C80.454 41.62 79.014 41.98 77.794 42.7C76.574 43.42 75.634 44.45 74.974 45.79C74.334 47.13 74.014 48.71 74.014 50.53C74.014 52.33 74.334 53.9 74.974 55.24C75.634 56.56 76.574 57.58 77.794 58.3C79.034 59.02 80.484 59.38 82.144 59.38C83.684 59.38 85.024 59.16 86.164 58.72C87.324 58.26 88.234 57.63 88.894 56.83C89.194 56.51 89.514 56.35 89.854 56.35C90.094 56.35 90.294 56.42 90.454 56.56C90.734 56.8 90.874 57.06 90.874 57.34C90.874 57.58 90.784 57.81 90.604 58.03C89.784 59.03 88.614 59.83 87.094 60.43C85.594 61.01 83.944 61.3 82.144 61.3Z" fill="#373737"/>
<path d="M116.12 58.03C116.34 58.21 116.45 58.42 116.45 58.66C116.45 58.86 116.36 59.1 116.18 59.38C115.76 59.96 115.18 60.43 114.44 60.79C113.7 61.13 112.94 61.3 112.16 61.3C110.84 61.3 109.8 60.91 109.04 60.13C108.28 59.35 107.9 58.28 107.9 56.92V48.13H106.28C105.48 48.13 105.08 47.82 105.08 47.2C105.08 46.92 105.18 46.7 105.38 46.54C105.6 46.38 105.9 46.3 106.28 46.3H107.9V41.17C107.9 40.79 107.99 40.5 108.17 40.3C108.37 40.08 108.65 39.97 109.01 39.97C109.35 39.97 109.61 40.08 109.79 40.3C109.99 40.5 110.09 40.79 110.09 41.17V46.3H114.17C114.53 46.3 114.81 46.38 115.01 46.54C115.23 46.68 115.34 46.9 115.34 47.2C115.34 47.82 114.95 48.13 114.17 48.13H110.09V57.1C110.09 58.64 110.81 59.41 112.25 59.41C112.71 59.41 113.13 59.32 113.51 59.14C113.89 58.96 114.27 58.67 114.65 58.27C114.95 57.95 115.24 57.79 115.52 57.79C115.7 57.79 115.9 57.87 116.12 58.03Z" fill="#373737"/>
<line x1="1" y1="98.5" x2="101" y2="98.5" stroke="#373737" stroke-width="3"/>
<line x1="1" y1="1.5" x2="101" y2="1.5" stroke="#373737" stroke-width="3"/>
<line x1="99.5" x2="99.5" y2="35" stroke="#373737" stroke-width="3"/>
<line x1="99.5" y1="65" x2="99.5" y2="100" stroke="#373737" stroke-width="3"/>
<line x1="99.5" y1="39" x2="99.5" y2="42" stroke="#54EA54" stroke-width="3"/>
<line x1="99.5" y1="46" x2="99.5" y2="61" stroke="#54EA54" stroke-width="3"/>
</svg>
